<?xml version="1.0" encoding="UTF-8"?>
<svg xmlns="http://www.w3.org/2000/svg" viewBox="0 0 835 1493">
  <defs>
    <style>
      .cls-1 {
        fill: #fff;
      }

      .cls-2 {
        fill: none;
        stroke: #000;
        stroke-miterlimit: 10;
        stroke-width: 5px;
      }
    </style>
  </defs>
  <g id="_图层_2" data-name="图层 2">
    <path class="cls-1" d="m109.06,887.51s-23.5-173.64,91.75-317.82,400.74-110.76,472.99,35.53,64.79,277.39,64.79,277.39c0,0,61.19-78.1,74.83,95.4-9.92,166.49-104.36,169.5-104.36,169.5,0,0-38.5,199.55-218.75,227.77-83.81,12.22-179.25-48.77-179.25-48.77,0,0-106.8-9.85-162.4-177.43-74.2-9.15-111.07,5.02-129.33-139.28s89.73-122.3,89.73-122.3Z"/>
  </g>
  <g id="_图层_1" data-name="图层 1">
    <path class="cls-2" d="m118,1020s25.5,260.5,193,306"/>
    <path class="cls-2" d="m99.5,887.5s-71,3-78,65,6,167,61,192"/>
    <path class="cls-2" d="m626.5,1288.2c58-31.3,83-140.7,83-140.7,0,0,68.9,8.43,96-110,27-118-16-204-63.33-164-20.33-125-19.42-409.99-344.67-396-279,12-288,346-288,346"/>
    <path class="cls-2" d="m341.5,1341.5s136,94,272-24"/>
    <path class="cls-2" d="m191.5,875.5s180.51-128.15,224,12c28.35,91.35-15.24,145.49-35.04,164.38-8.07,7.7-13.63,17.74-15.32,28.77-1.85,12.08,6.36,24.86,16.47,24.86,45.94,0,65.25-30,80.07,0"/>
    <path class="cls-2" d="m311,924.94s19.18,12.5,15.59,38.78c-3.59,26.28-16.59,46.28-40.59,46.28s-40.5-26.5-36.08-55.75c4.52-29.93,26.55-49.12,43.81-53.68"/>
    <path class="cls-2" d="m223.43,1016s39.07,22.98,87.57,6.74"/>
    <path class="cls-2" d="m451.5,1138.5s-116,2-134,49c-19.04,49.71,29,62.67,77,39.33,48-23.33,102-28.33,131-3.33s67.79-51.43,18.9-72.21-92.9-12.79-92.9-12.79Z"/>
    <path class="cls-2" d="m547.5,918.5s43-7,39.6,45.02c-1.73,26.47-16.59,46.28-40.59,46.28s-38.36-24.81-36.08-55.75c1.07-14.55-.93-117.55,123.07-69.55"/>
    <g>
      <path d="m211.37,738.1l-66.13-21.74,1.85-5.63,66.13,21.74-1.85,5.63Z"/>
      <path d="m249.57,653.74l-19.05,34.46-61-33.72,2.83-5.12,55.99,30.95,16.22-29.35,5.01,2.77Z"/>
      <path d="m231.85,594.05c9.62-9,20.74-7.92,33.37,3.24,12.4,12.24,13.91,23.55,4.53,33.92-9.86,8.99-20.98,8.09-33.38-2.71-12.35-12.47-13.85-23.95-4.51-34.44Zm34.41,33.41c6.36-7.44,4.67-16.01-5.06-25.7-10.18-9.05-18.84-10.33-25.98-3.85-6.62,7.55-4.94,16.29,5.04,26.23,9.93,8.8,18.59,9.91,26,3.32Z"/>
      <path d="m305.45,560.2l-4.41,3.78c-4.04-5.15-8.92-6.35-14.63-3.6-6.55,3.29-8.64,7.64-6.25,13.07,1.31,4.51,6.64,5.4,15.99,2.65,1.35-.32,2.7-.62,4.07-.89,9.02-1.87,14.91.34,17.65,6.64,4.04,8.99.74,16.15-9.91,21.47-9.59,5.01-17.7,3.15-24.32-5.58l4.27-3.72c4.85,6.72,10.75,8.3,17.7,4.76,7.23-3.68,9.62-8.41,7.18-14.2-1.63-4.23-5.75-5.6-12.36-4.11-1.44.24-2.99.56-4.64.96-11.22,3.06-18.13,1.24-20.72-5.46-3.43-8.44-.55-15.1,8.64-19.98,8.85-4.26,16.1-2.87,21.75,4.18Z"/>
      <path d="m328.03,522.25l4.59,17.17,9.12-2.44,1.3,4.85-9.12,2.44,8.93,33.41c1.21,5.14,3.56,7.09,7.05,5.86,1.69-.51,2.94-1.27,3.75-2.28l1.98,3.48c-1.34,1.82-3.47,3.11-6.39,3.89-5.89,1.94-9.77-1.03-11.66-8.91l-9.09-34-6.85,1.83-1.3-4.85,6.86-1.83-3.91-14.62,4.74-4Z"/>
      <path d="m422.4,578.96l-20.81-64.42h-.47s-.56,64.5-.56,64.5l-5.46-.05.6-69.69,9.59.08,19.58,61.95h.31s20.5-61.6,20.5-61.6l9.59.08-.61,69.69-5.46-.05.56-64.5h-.47c-.54,1.87-7.79,23.22-21.77,64.05l-5.15-.04Z"/>
      <path d="m512.29,539.5l6.09,1.37c-18.17,28.03-28.5,44.02-30.98,47.97-3.37,5.26-6.2,8.74-8.5,10.45-2.15,1.74-4.56,2.25-7.22,1.54-2.93-.72-5.25-1.9-6.96-3.54l1.36-3.93c1.47,1.05,3.19,1.8,5.17,2.24,3.19,1.44,6.98-1.44,11.37-8.63.19-.38.73-1.25,1.62-2.61.24-.37.41-.63.5-.79l-7.38-51.89,6.01,1.35c2.28,19.27,3.81,32.18,4.58,38.73.07.62.2,1.73.37,3.33.16,1.66.28,2.68.35,3.06.18-.32.59-.98,1.24-1.98,1.03-1.75,1.75-2.94,2.16-3.57,4-6.44,10.74-17.46,20.21-33.07Z"/>
      <path d="m581.4,633.23l-4.76-3.53,19.83-26.71-29.74-22.08-19.83,26.71-4.7-3.49,41.54-55.96,4.7,3.49-18.31,24.66,29.74,22.08,18.31-24.66,4.76,3.53-41.54,55.96Z"/>
      <path d="m612.6,677.55l-3.21-4.7c.92-2.51,3.22-5.02,6.9-7.53-7.9,1.23-14.61-2.06-20.14-9.87-5-7.86-3.75-14.52,3.73-20,7.49-5.04,14.89-3.51,22.19,4.6,6.74,7.8,11.52,11.59,14.34,11.36,3.96-2.63,6.15-5.2,6.58-7.69.51-2.48-.57-5.68-3.23-9.59-4.55-7.09-10.35-9.05-17.42-5.87l-1.87-5.24c9.5-4.08,17.36-1.29,23.59,8.37,7.52,10.1,5.82,18.49-5.1,25.18-5.96,4.06-12.1,8.24-18.4,12.54-4.06,2.58-6.72,5.4-7.98,8.45Zm12.83-18.37l7.39-4.94c-3.26-.1-7.48-3.11-12.65-9.03-6.32-7.4-12.01-9.08-17.08-5.06-5.32,3.24-5.71,7.98-1.18,14.21,6.5,8.6,14.33,10.21,23.52,4.83Z"/>
      <path d="m618.15,690.34l45.98-21.74,2.4,5.08-45.98,21.74-2.4-5.08Zm55.58-26.36l7.48-3.54,2.43,5.15-7.48,3.54-2.43-5.15Z"/>
      <path d="m654.99,706.9l-25.96,9.21-1.88-5.29,47.85-16.97,1.88,5.29-9.04,3.21.03.07c7.29-.16,11.96,2.32,14.03,7.44,1.11,2.97,1.25,5.82.42,8.54l-6.53-.25c1.03-2.02,1.07-4.35.13-7-2.86-6.49-9.84-7.9-20.93-4.24Z"/>
      <path d="m640.79,755.49l-1.6-6.43,8.45-2.1,1.6,6.43-8.45,2.1Zm67.69-16.59l-49.34,10.9-1.11-4.46,48.74-13.32,1.71,6.89Z"/>
    </g>
    <path class="cls-2" d="m754,978s-7,34.39,0,54.2-5,54.8-22,59.8"/>
    <path class="cls-2" d="m72.06,940.82s-51.43,41.23,18.44,157.68"/>
  </g>
</svg>